<?xml version="1.0" encoding="UTF-8" standalone="no"?>
<!-- Created with Inkscape (http://www.inkscape.org/) -->

<svg
   xmlns:dc="http://purl.org/dc/elements/1.1/"
   xmlns:cc="http://creativecommons.org/ns#"
   xmlns:rdf="http://www.w3.org/1999/02/22-rdf-syntax-ns#"
   xmlns:svg="http://www.w3.org/2000/svg"
   xmlns="http://www.w3.org/2000/svg"
   xmlns:sodipodi="http://sodipodi.sourceforge.net/DTD/sodipodi-0.dtd"
   xmlns:inkscape="http://www.inkscape.org/namespaces/inkscape"
   width="44.50008"
   height="44.5"
   id="svg11581"
   version="1.1"
   inkscape:version="0.48.4 r9939"
   sodipodi:docname="tracyml_icons_risk_fl.svg">
  <defs
     id="defs11583" />
  <sodipodi:namedview
     id="base"
     pagecolor="#ffffff"
     bordercolor="#666666"
     borderopacity="1.0"
     inkscape:pageopacity="0.0"
     inkscape:pageshadow="2"
     inkscape:zoom="1.979899"
     inkscape:cx="-9.590188"
     inkscape:cy="-60.333206"
     inkscape:document-units="px"
     inkscape:current-layer="layer1"
     showgrid="false"
     fit-margin-top="5"
     fit-margin-right="5"
     fit-margin-bottom="5"
     fit-margin-left="5"
     inkscape:window-width="1920"
     inkscape:window-height="1025"
     inkscape:window-x="0"
     inkscape:window-y="30"
     inkscape:window-maximized="1"
     units="pt" />
  <metadata
     id="metadata11586">
    <rdf:RDF>
      <cc:Work
         rdf:about="">
        <dc:format>image/svg+xml</dc:format>
        <dc:type
           rdf:resource="http://purl.org/dc/dcmitype/StillImage" />
        <dc:title />
      </cc:Work>
    </rdf:RDF>
  </metadata>
  <g
     inkscape:label="Layer 1"
     inkscape:groupmode="layer"
     id="layer1"
     transform="translate(-226.09279,-50.11218)">
    <path
       style="fill:#666666"
       inkscape:connector-curvature="0"
       id="path10374"
       d="m 260.57799,79.8914 q 0,-0.78416 -0.54905,-1.33311 l -4.0782,-4.07831 q -0.54909,-0.54933 -1.33361,-0.54933 -0.82324,0 -1.41167,0.62758 0.0581,0.0589 0.3727,0.36262 0.31379,0.30411 0.42151,0.42151 0.10802,0.11785 0.29398,0.37269 0.18631,0.25504 0.25505,0.50015 0.0693,0.24495 0.0693,0.53927 0,0.78416 -0.54895,1.33313 -0.54891,0.54895 -1.3331,0.54895 -0.29446,0 -0.53924,-0.0684 -0.24522,-0.0684 -0.50023,-0.25505 -0.25505,-0.1863 -0.37233,-0.29404 -0.11785,-0.10774 -0.42185,-0.42151 -0.30367,-0.3138 -0.3625,-0.37269 -0.64715,0.60787 -0.64715,1.4315 0,0.78412 0.54909,1.33311 l 4.03917,4.05892 q 0.52959,0.52958 1.33344,0.52958 0.7842,0 1.33312,-0.50983 l 2.88231,-2.86297 q 0.54892,-0.54898 0.54892,-1.31371 z M 246.79371,66.06806 q 0,-0.78412 -0.54891,-1.33346 l -4.03918,-4.05857 q -0.54891,-0.54897 -1.33312,-0.54897 -0.76483,0 -1.33344,0.52922 l -2.88247,2.86297 q -0.54892,0.54898 -0.54892,1.31335 0,0.7845 0.54892,1.3335 l 4.07837,4.07831 q 0.52956,0.52958 1.33344,0.52958 0.82369,0 1.4118,-0.60786 -0.0581,-0.0589 -0.37267,-0.36265 -0.31379,-0.30408 -0.42153,-0.42188 -0.10802,-0.11727 -0.29413,-0.37232 -0.1863,-0.25504 -0.25476,-0.50012 -0.0694,-0.24495 -0.0694,-0.53927 0,-0.78416 0.54892,-1.3331 0.54893,-0.54898 1.33344,-0.54898 0.29413,0 0.53893,0.0684 0.24522,0.0684 0.50022,0.25504 0.25476,0.1863 0.37266,0.29404 0.11783,0.10774 0.42153,0.42151 0.30364,0.31383 0.36251,0.37269 0.64711,-0.60784 0.64711,-1.43147 z m 17.54916,13.82334 q 0,2.35313 -1.66676,3.98067 l -2.8823,2.8626 q -1.62756,1.62751 -3.9803,1.62751 -2.37261,0 -4.00001,-1.66665 l -4.03917,-4.05892 q -1.62757,-1.62751 -1.62757,-3.98031 0,-2.41166 1.7256,-4.09807 l -1.7256,-1.72551 q -1.68643,1.72551 -4.07836,1.72551 -2.35308,0 -4.00001,-1.6469 l -4.07834,-4.07867 q -1.64726,-1.64693 -1.64726,-4.00006 0,-2.35277 1.66676,-3.98028 l 2.8823,-2.86263 q 1.62743,-1.62751 3.98065,-1.62751 2.3721,0 3.99966,1.66665 l 4.0392,4.05892 q 1.62757,1.62751 1.62757,3.98031 0,2.41166 -1.72563,4.09807 l 1.72563,1.72554 q 1.68643,-1.72554 4.0782,-1.72554 2.35321,0 4.00014,1.6469 l 4.07837,4.07867 q 1.64723,1.64693 1.64723,3.9997 z"
       horiz-adv-x="1664"
       unicode="ïƒ" />
  </g>
</svg>
