<?xml version="1.0" encoding="UTF-8" standalone="no"?>
<!-- Created with Inkscape (http://www.inkscape.org/) -->

<svg
   xmlns:dc="http://purl.org/dc/elements/1.1/"
   xmlns:cc="http://creativecommons.org/ns#"
   xmlns:rdf="http://www.w3.org/1999/02/22-rdf-syntax-ns#"
   xmlns:svg="http://www.w3.org/2000/svg"
   xmlns="http://www.w3.org/2000/svg"
   xmlns:sodipodi="http://sodipodi.sourceforge.net/DTD/sodipodi-0.dtd"
   xmlns:inkscape="http://www.inkscape.org/namespaces/inkscape"
   width="80"
   height="15.32092"
   id="svg9680"
   version="1.1"
   inkscape:version="0.48.4 r9939"
   sodipodi:docname="tracyml_icon_activity_negotiation.pdf">
  <defs
     id="defs9682" />
  <sodipodi:namedview
     id="base"
     pagecolor="#ffffff"
     bordercolor="#666666"
     borderopacity="1.0"
     inkscape:pageopacity="0.0"
     inkscape:pageshadow="2"
     inkscape:zoom="3.959798"
     inkscape:cx="-31.429684"
     inkscape:cy="-2.8850952"
     inkscape:document-units="px"
     inkscape:current-layer="layer1"
     showgrid="false"
     fit-margin-top="1"
     fit-margin-right="1"
     fit-margin-bottom="1"
     fit-margin-left="1"
     inkscape:window-width="1920"
     inkscape:window-height="1025"
     inkscape:window-x="0"
     inkscape:window-y="30"
     inkscape:window-maximized="1" />
  <metadata
     id="metadata9685">
    <rdf:RDF>
      <cc:Work
         rdf:about="">
        <dc:format>image/svg+xml</dc:format>
        <dc:type
           rdf:resource="http://purl.org/dc/dcmitype/StillImage" />
        <dc:title></dc:title>
      </cc:Work>
    </rdf:RDF>
  </metadata>
  <g
     inkscape:label="Layer 1"
     inkscape:groupmode="layer"
     id="layer1"
     transform="translate(-276.23811,-393.27315)">
    <path
       unicode=""
       horiz-adv-x="1792"
       d="m 318.05417,395.48407 q 1.44742,0 2.70564,0.49193 1.25821,0.49192 2.00085,1.33389 0.74263,0.84196 0.74263,1.80691 0,0.77575 -0.5014,1.49473 -0.50139,0.71899 -1.40958,1.24876 l -0.91765,0.52977 0.33111,0.79467 q -0.32164,-0.18922 -0.58653,-0.36895 l -0.41625,-0.29327 -0.5014,0.0945 q -0.7379,0.13249 -1.44742,0.13249 -1.44742,0 -2.70564,-0.49195 -1.25822,-0.4919 -2.00085,-1.33388 -0.74263,-0.84197 -0.74263,-1.80692 0,-0.96495 0.74263,-1.80692 0.74263,-0.84196 2.00085,-1.33388 1.25822,-0.49194 2.70564,-0.49194 z m 0,-1.21092 q -1.80691,0 -3.34421,0.64801 -1.53729,0.64806 -2.42656,1.76437 -0.88926,1.11631 -0.88926,2.43127 0,1.31498 0.88926,2.43129 0.88927,1.11633 2.42656,1.76436 1.5373,0.64803 3.34421,0.64803 0.81358,0 1.66501,-0.15136 1.17307,0.83251 2.62995,1.2109 0.34057,0.0851 0.81359,0.15137 l 0.0284,0 q 0.10406,0 0.19393,-0.0756 0.0899,-0.0756 0.1088,-0.19867 0.01,-0.0284 0.01,-0.0616 0,-0.0331 -0.005,-0.0616 -0.005,-0.0284 -0.0189,-0.0567 l -0.0237,-0.0473 q 0,0 -0.0331,-0.052 -0.0331,-0.052 -0.0378,-0.0473 -0.005,0.004 -0.0426,-0.0473 -0.0378,-0.052 -0.0378,-0.0425 -0.0473,-0.0567 -0.21759,-0.23652 -0.17029,-0.17973 -0.24597,-0.27906 -0.0757,-0.0994 -0.21285,-0.27434 -0.13718,-0.17503 -0.23651,-0.36422 -0.0993,-0.1892 -0.19394,-0.41625 1.17308,-0.68115 1.84476,-1.67448 0.67168,-0.99334 0.67168,-2.1191 0,-1.31498 -0.88927,-2.43129 -0.88927,-1.11629 -2.42656,-1.76435 -1.53729,-0.64803 -3.34421,-0.64803 z m -7.77635,11.05907 q -0.0946,0.22703 -0.19393,0.41625 -0.0993,0.1892 -0.23651,0.36422 -0.13717,0.175 -0.21285,0.27434 -0.0757,0.0994 -0.24597,0.27908 -0.17029,0.17975 -0.21759,0.23651 -0.009,0.0103 -0.0378,0.0425 -0.0284,0.0331 -0.0426,0.0473 -0.0142,0.0146 -0.0378,0.0473 -0.0237,0.0331 -0.0331,0.052 l -0.0237,0.0473 q 0,0 -0.0189,0.0567 -0.0189,0.0567 -0.005,0.0616 0.0142,0.004 0.01,0.0614 0.0284,0.1325 0.12298,0.20811 0.0946,0.0756 0.20813,0.0662 0.47301,-0.0662 0.81358,-0.15135 1.45689,-0.37842 2.62996,-1.21091 0.85142,0.15136 1.66501,0.15136 2.56373,0 4.46525,-1.24877 -0.5487,0.0378 -0.83251,0.0378 -1.5231,0 -2.92322,-0.4257 -1.40012,-0.42572 -2.49751,-1.22039 -1.18254,-0.87034 -1.81638,-2.00557 -0.63383,-1.13523 -0.63383,-2.40292 0,-0.72845 0.21758,-1.43796 -1.22037,0.67169 -1.9299,1.68393 -0.70952,1.01225 -0.70952,2.17588 0,1.13524 0.67168,2.12381 0.67168,0.98859 1.84476,1.66975 z"
       id="path10444"
       inkscape:connector-curvature="0"
       style="fill:#666666" />
  </g>
</svg>
