<?xml version="1.0" encoding="UTF-8" standalone="no"?>
<!-- Generator: Adobe Illustrator 18.1.1, SVG Export Plug-In . SVG Version: 6.00 Build 0)  -->

<svg
   xmlns:dc="http://purl.org/dc/elements/1.1/"
   xmlns:cc="http://creativecommons.org/ns#"
   xmlns:rdf="http://www.w3.org/1999/02/22-rdf-syntax-ns#"
   xmlns:svg="http://www.w3.org/2000/svg"
   xmlns="http://www.w3.org/2000/svg"
   xmlns:sodipodi="http://sodipodi.sourceforge.net/DTD/sodipodi-0.dtd"
   xmlns:inkscape="http://www.inkscape.org/namespaces/inkscape"
   version="1.1"
   id="Capa_1"
   x="0px"
   y="0px"
   viewBox="0 0 50 50"
   xml:space="preserve"
   inkscape:version="0.48.4 r9939"
   width="100%"
   height="100%"
   sodipodi:docname="tracyml_icons_risk_fl_v2.svg"
   inkscape:export-filename="/home/andy/Projects/survey_35795.png"
   inkscape:export-xdpi="90"
   inkscape:export-ydpi="90"><metadata
     id="metadata4473"><rdf:RDF><cc:Work
         rdf:about=""><dc:format>image/svg+xml</dc:format><dc:type
           rdf:resource="http://purl.org/dc/dcmitype/StillImage" /><dc:title></dc:title></cc:Work></rdf:RDF></metadata><defs
     id="defs4471" /><sodipodi:namedview
     pagecolor="#ffffff"
     bordercolor="#666666"
     borderopacity="1"
     objecttolerance="10"
     gridtolerance="10"
     guidetolerance="10"
     inkscape:pageopacity="0"
     inkscape:pageshadow="2"
     inkscape:window-width="1920"
     inkscape:window-height="1025"
     id="namedview4469"
     showgrid="false"
     units="px"
     inkscape:zoom="3.9919569"
     inkscape:cx="22.927722"
     inkscape:cy="35.78516"
     inkscape:window-x="0"
     inkscape:window-y="30"
     inkscape:window-maximized="1"
     inkscape:current-layer="Capa_1" /><g
     id="g4419"
     style="fill:#666666"
     transform="matrix(0.0734783,0,0,0.0734783,7.6241977,7.6242304)"><g
       id="g4421"
       style="fill:#666666"><g
         id="g4423"
         style="fill:#666666"><path
           style="fill:#666666"
           d="M 462.557,77.627 C 448.234,52.071 421.069,36.204 391.668,36.204 c -13.835,0 -27.54,3.585 -39.602,10.364 l -152.557,85.635 17.55,31.279 152.565,-85.635 c 6.747,-3.78 14.371,-5.779 22.069,-5.779 16.428,0 31.596,8.852 39.594,23.11 5.909,10.535 7.356,22.752 4.072,34.408 -3.268,11.656 -10.876,21.346 -21.411,27.255 l -138.291,77.604 c -2.634,-16.851 -10.494,-32.392 -22.793,-44.699 -21.687,-21.663 -56.063,-29.328 -84.935,-18.964 l -12.485,4.495 12.128,33.734 12.534,-4.471 c 16.127,-5.869 35.319,-1.496 47.406,10.567 6.974,6.982 11.388,15.826 12.786,25.41 -0.585,-0.138 -1.171,-0.285 -1.731,-0.447 -11.681,-3.284 -21.354,-10.9 -27.271,-21.476 l -6.519,-11.518 -31.303,17.59 6.56,11.518 c 10.6,18.915 27.93,32.571 48.836,38.44 0.723,0.187 1.455,0.39 2.187,0.561 -1.105,1.398 -2.284,2.731 -3.536,3.983 l -114.32,114.328 c -8.551,8.543 -19.931,13.241 -32.035,13.241 -12.112,0 -23.492,-4.698 -32.027,-13.241 -8.535,-8.543 -13.233,-19.907 -13.233,-32.027 0,-12.112 4.698,-23.483 13.233,-32.018 L 148.43,230.169 123.061,204.8 23.779,304.082 C 8.446,319.427 0,339.806 0,361.468 c 0,21.679 8.446,42.049 23.776,57.396 15.339,15.339 35.709,23.768 57.388,23.768 21.679,0 42.049,-8.429 57.388,-23.768 l 114.345,-114.32 c 8.372,-8.405 14.81,-18.566 18.842,-29.71 6.625,-1.764 12.924,-4.3 18.777,-7.6 l 140.99,-79.115 c 18.875,-10.608 32.514,-27.946 38.375,-48.828 5.868,-20.891 3.267,-42.798 -7.324,-61.664 z"
           id="path4425"
           inkscape:connector-curvature="0" /></g><g
         id="g4427"
         style="fill:#666666"><g
           id="g4429"
           style="fill:#666666"><path
             style="fill:#666666"
             d="m 173.171,141.769 c 4.503,-0.821 7.511,-5.145 6.69,-9.657 L 162.758,37.17 c -0.821,-4.519 -5.162,-7.527 -9.665,-6.722 -4.511,0.821 -7.527,5.145 -6.706,9.673 l 17.111,94.925 c 0.813,4.529 5.146,7.528 9.673,6.723 z"
             id="path4431"
             inkscape:connector-curvature="0" /></g></g><g
         id="g4433"
         style="fill:#666666"><g
           id="g4435"
           style="fill:#666666"><path
             style="fill:#666666"
             d="m 43.561,191.776 94.934,-17.119 c 4.519,-0.821 7.527,-5.145 6.706,-9.657 -0.821,-4.528 -5.145,-7.543 -9.649,-6.722 L 40.61,175.405 c -4.503,0.797 -7.519,5.145 -6.698,9.657 0.805,4.52 5.146,7.527 9.649,6.714 z"
             id="path4437"
             inkscape:connector-curvature="0" /></g></g></g></g><g
     id="g4439"
     transform="translate(0,-422.95102)" /><g
     id="g4441"
     transform="translate(0,-422.95102)" /><g
     id="g4443"
     transform="translate(0,-422.95102)" /><g
     id="g4445"
     transform="translate(0,-422.95102)" /><g
     id="g4447"
     transform="translate(0,-422.95102)" /><g
     id="g4449"
     transform="translate(0,-422.95102)" /><g
     id="g4451"
     transform="translate(0,-422.95102)" /><g
     id="g4453"
     transform="translate(0,-422.95102)" /><g
     id="g4455"
     transform="translate(0,-422.95102)" /><g
     id="g4457"
     transform="translate(0,-422.95102)" /><g
     id="g4459"
     transform="translate(0,-422.95102)" /><g
     id="g4461"
     transform="translate(0,-422.95102)" /><g
     id="g4463"
     transform="translate(0,-422.95102)" /><g
     id="g4465"
     transform="translate(0,-422.95102)" /><g
     id="g4467"
     transform="translate(0,-422.95102)" /></svg>