<?xml version="1.0" encoding="UTF-8" standalone="no"?>
<!-- Created with Inkscape (http://www.inkscape.org/) -->

<svg
   xmlns:dc="http://purl.org/dc/elements/1.1/"
   xmlns:cc="http://creativecommons.org/ns#"
   xmlns:rdf="http://www.w3.org/1999/02/22-rdf-syntax-ns#"
   xmlns:svg="http://www.w3.org/2000/svg"
   xmlns="http://www.w3.org/2000/svg"
   xmlns:sodipodi="http://sodipodi.sourceforge.net/DTD/sodipodi-0.dtd"
   xmlns:inkscape="http://www.inkscape.org/namespaces/inkscape"
   width="80"
   height="17.53023"
   id="svg9627"
   version="1.1"
   inkscape:version="0.48.4 r9939"
   sodipodi:docname="tracyml_icon_activity_contact.pdf">
  <defs
     id="defs9629" />
  <sodipodi:namedview
     id="base"
     pagecolor="#ffffff"
     bordercolor="#666666"
     borderopacity="1.0"
     inkscape:pageopacity="0.0"
     inkscape:pageshadow="2"
     inkscape:zoom="5.6"
     inkscape:cx="-13.126303"
     inkscape:cy="18.74926"
     inkscape:document-units="px"
     inkscape:current-layer="layer1"
     showgrid="false"
     fit-margin-top="1"
     fit-margin-right="1"
     fit-margin-bottom="1"
     fit-margin-left="1"
     inkscape:window-width="1920"
     inkscape:window-height="1025"
     inkscape:window-x="0"
     inkscape:window-y="30"
     inkscape:window-maximized="1" />
  <metadata
     id="metadata9632">
    <rdf:RDF>
      <cc:Work
         rdf:about="">
        <dc:format>image/svg+xml</dc:format>
        <dc:type
           rdf:resource="http://purl.org/dc/dcmitype/StillImage" />
        <dc:title></dc:title>
      </cc:Work>
    </rdf:RDF>
  </metadata>
  <g
     inkscape:label="Layer 1"
     inkscape:groupmode="layer"
     id="layer1"
     transform="translate(-200.49723,-223.59707)">
    <path
       unicode=""
       horiz-adv-x="1408"
       d="m 232.8538,236.79192 q 0,0.29315 0.10857,0.76545 0.10858,0.47228 0.22801,0.7437 0.228,0.54287 1.32456,1.15087 1.02058,0.55372 2.01945,0.55372 0.29313,0 0.56999,-0.038 0.27686,-0.038 0.62429,-0.13572 0.34743,-0.0978 0.51572,-0.15742 0.16829,-0.0597 0.60257,-0.22258 0.4343,-0.16286 0.53201,-0.19543 1.06401,-0.38 1.90001,-0.90115 1.38972,-0.85771 2.87172,-2.33971 1.48201,-1.48201 2.33973,-2.87174 0.52114,-0.836 0.90114,-1.9 0.0326,-0.0978 0.19543,-0.53201 0.16286,-0.43429 0.22257,-0.60256 0.0597,-0.16829 0.15743,-0.51572 0.0977,-0.34743 0.13572,-0.62429 0.038,-0.27686 0.038,-0.57 0,-0.99886 -0.55371,-2.01943 -0.608,-1.09659 -1.15086,-1.32458 -0.27143,-0.11946 -0.74372,-0.228 -0.47229,-0.10861 -0.76543,-0.10861 -0.152,0 -0.228,0.0325 -0.19543,0.0651 -0.57543,0.82514 -0.11942,0.20629 -0.32571,0.58629 -0.20629,0.37999 -0.38001,0.68942 -0.17371,0.30944 -0.33657,0.58086 -0.0326,0.0434 -0.19,0.27144 -0.15743,0.228 -0.23343,0.38543 -0.076,0.15743 -0.076,0.30943 0,0.21714 0.30943,0.54285 0.30943,0.32572 0.67314,0.59716 0.36372,0.27143 0.67315,0.57542 0.30942,0.30401 0.30942,0.49944 0,0.0978 -0.0543,0.24428 -0.0543,0.14657 -0.0923,0.22258 -0.038,0.0761 -0.15199,0.26056 -0.11401,0.18457 -0.12487,0.2063 -0.82515,1.48743 -1.88915,2.55142 -1.06401,1.06402 -2.55144,1.88916 -0.0217,0.0103 -0.20629,0.12487 -0.18457,0.11403 -0.26057,0.15201 -0.076,0.038 -0.22257,0.0923 -0.14657,0.0542 -0.24429,0.0542 -0.19543,0 -0.49943,-0.30943 -0.304,-0.30943 -0.57543,-0.67315 -0.27143,-0.3637 -0.59714,-0.67313 -0.32572,-0.30943 -0.54286,-0.30943 -0.15199,0 -0.30942,0.0761 -0.15744,0.0761 -0.38544,0.23344 -0.228,0.15743 -0.27143,0.18999 -0.27143,0.16287 -0.58086,0.33658 -0.30943,0.17371 -0.68943,0.38 -0.38,0.20628 -0.58628,0.32572 -0.76,0.38 -0.82516,0.57543 -0.0326,0.0761 -0.0326,0.228 z"
       id="path11382-9"
       inkscape:connector-curvature="0"
       style="fill:#666666" />
  </g>
</svg>
