<?xml version="1.0" encoding="UTF-8" standalone="no"?>
<!-- Created with Inkscape (http://www.inkscape.org/) -->

<svg
   xmlns:dc="http://purl.org/dc/elements/1.1/"
   xmlns:cc="http://creativecommons.org/ns#"
   xmlns:rdf="http://www.w3.org/1999/02/22-rdf-syntax-ns#"
   xmlns:svg="http://www.w3.org/2000/svg"
   xmlns="http://www.w3.org/2000/svg"
   xmlns:sodipodi="http://sodipodi.sourceforge.net/DTD/sodipodi-0.dtd"
   xmlns:inkscape="http://www.inkscape.org/namespaces/inkscape"
   width="50"
   height="50"
   id="svg11581"
   version="1.1"
   inkscape:version="0.48.4 r9939"
   sodipodi:docname="tracyml_icons_risk_cl.svg"
   inkscape:export-filename="/home/andy/Projects/survey_53140.png"
   inkscape:export-xdpi="90"
   inkscape:export-ydpi="90">
  <defs
     id="defs11583" />
  <sodipodi:namedview
     id="base"
     pagecolor="#ffffff"
     bordercolor="#666666"
     borderopacity="1.0"
     inkscape:pageopacity="0.0"
     inkscape:pageshadow="2"
     inkscape:zoom="1.979899"
     inkscape:cx="114.63915"
     inkscape:cy="-66.333206"
     inkscape:document-units="px"
     inkscape:current-layer="layer1"
     showgrid="false"
     fit-margin-top="5"
     fit-margin-right="5"
     fit-margin-bottom="5"
     fit-margin-left="5"
     inkscape:window-width="1920"
     inkscape:window-height="1025"
     inkscape:window-x="0"
     inkscape:window-y="30"
     inkscape:window-maximized="1"
     units="px" />
  <metadata
     id="metadata11586">
    <rdf:RDF>
      <cc:Work
         rdf:about="">
        <dc:format>image/svg+xml</dc:format>
        <dc:type
           rdf:resource="http://purl.org/dc/dcmitype/StillImage" />
        <dc:title></dc:title>
      </cc:Work>
    </rdf:RDF>
  </metadata>
  <g
     inkscape:label="Layer 1"
     inkscape:groupmode="layer"
     id="layer1"
     transform="translate(-101.86345,-38.61218)">
    <path
       style="fill:#666666"
       inkscape:connector-curvature="0"
       id="path10820"
       d="m 133.64565,58.41428 -3.61393,3.61369 0,10.19819 q 0,0.56929 -0.40837,0.97765 -0.40839,0.40837 -0.97764,0.40837 -0.5695,0 -0.97786,-0.40837 -0.40838,-0.40836 -0.40838,-0.97765 l 0,-4.75247 -0.79204,0 0,4.75247 q 0,0.56929 -0.40837,0.97765 -0.40838,0.40837 -0.97788,0.40837 -0.56927,0 -0.97764,-0.40837 -0.40837,-0.40836 -0.40837,-0.97765 l 0,-10.19819 -3.61393,-3.61369 q -0.34649,-0.34651 -0.34649,-0.84167 0,-0.49493 0.34649,-0.84145 0.34651,-0.34673 0.84168,-0.34673 0.49494,0 0.84166,0.34673 l 2.82165,2.82166 4.5544,0 2.8219,-2.82166 q 0.34651,-0.34673 0.84144,-0.34673 0.49516,0 0.84168,0.34673 0.3465,0.34652 0.3465,0.84145 0,0.49516 -0.3465,0.84167 z m -4.00985,-2.02985 q 0,1.15101 -0.81063,1.96163 -0.81082,0.81086 -1.96161,0.81086 -1.15101,0 -1.96163,-0.81086 -0.81085,-0.81062 -0.81085,-1.96163 0,-1.15079 0.81085,-1.96163 0.81062,-0.81062 1.96163,-0.81062 1.15079,0 1.96161,0.81062 0.81063,0.81084 0.81063,1.96163 z"
       horiz-adv-x="1280"
       unicode="" />
  </g>
</svg>
