<?xml version="1.0" encoding="UTF-8" standalone="no"?>
<!-- Created with Inkscape (http://www.inkscape.org/) -->

<svg
   xmlns:dc="http://purl.org/dc/elements/1.1/"
   xmlns:cc="http://creativecommons.org/ns#"
   xmlns:rdf="http://www.w3.org/1999/02/22-rdf-syntax-ns#"
   xmlns:svg="http://www.w3.org/2000/svg"
   xmlns="http://www.w3.org/2000/svg"
   xmlns:sodipodi="http://sodipodi.sourceforge.net/DTD/sodipodi-0.dtd"
   xmlns:inkscape="http://www.inkscape.org/namespaces/inkscape"
   width="50"
   height="50"
   id="svg11581"
   version="1.1"
   inkscape:version="0.48.4 r9939"
   sodipodi:docname="tracyml_icons_risk_ss.svg"
   inkscape:export-filename="/home/andy/Projects/survey_66655.png"
   inkscape:export-xdpi="90"
   inkscape:export-ydpi="90">
  <defs
     id="defs11583" />
  <sodipodi:namedview
     id="base"
     pagecolor="#ffffff"
     bordercolor="#666666"
     borderopacity="1.0"
     inkscape:pageopacity="0.0"
     inkscape:pageshadow="2"
     inkscape:zoom="5.6"
     inkscape:cx="27.167527"
     inkscape:cy="12.608742"
     inkscape:document-units="px"
     inkscape:current-layer="layer1"
     showgrid="false"
     fit-margin-top="2"
     fit-margin-right="2"
     fit-margin-bottom="2"
     fit-margin-left="2"
     inkscape:window-width="1920"
     inkscape:window-height="1025"
     inkscape:window-x="0"
     inkscape:window-y="30"
     inkscape:window-maximized="1"
     units="px" />
  <metadata
     id="metadata11586">
    <rdf:RDF>
      <cc:Work
         rdf:about="">
        <dc:format>image/svg+xml</dc:format>
        <dc:type
           rdf:resource="http://purl.org/dc/dcmitype/StillImage" />
        <dc:title></dc:title>
      </cc:Work>
    </rdf:RDF>
  </metadata>
  <g
     inkscape:label="Layer 1"
     inkscape:groupmode="layer"
     id="layer1"
     transform="translate(-272.966,-42.641593)">
    <path
       unicode="ï‡"
       horiz-adv-x="1792"
       d="m 297.96599,50.397901 q 3.50251,0 6.6973,1.36626 3.19465,1.366618 5.50423,3.675893 2.30924,2.30966 3.67595,5.504146 1.36626,3.194871 1.36626,6.697379 0,3.502535 -1.36626,6.697406 -1.36671,3.194844 -3.67595,5.504118 -2.30958,2.309303 -5.50423,3.675923 -3.19479,1.36626 -6.6973,1.36626 -3.50251,0 -6.69746,-1.36626 -3.19481,-1.36662 -5.50406,-3.675923 -2.30925,-2.309274 -3.67597,-5.504118 -1.36623,-3.194871 -1.36623,-6.697406 0,-3.502508 1.36623,-6.697379 1.36673,-3.194486 3.67597,-5.504146 2.30926,-2.309275 5.50406,-3.675893 3.19495,-1.36626 6.69746,-1.36626 z m 0,2.4633 q -3.6565,0 -6.94754,1.732059 l 3.73359,3.73367 q 1.57817,-0.538799 3.21395,-0.538799 1.63579,0 3.21396,0.538799 l 3.73359,-3.73367 q -3.29104,-1.732059 -6.94755,-1.732059 z m -13.04829,21.727975 3.73356,-3.733697 q -0.53877,-1.578034 -0.53877,-3.2139 0,-1.635839 0.53877,-3.213873 l -3.73356,-3.733698 q -1.7322,3.291064 -1.7322,6.94757 0,3.656533 1.7322,6.947597 z m 13.04829,7.83281 q 3.65651,0 6.94755,-1.732061 l -3.73359,-3.733671 q -1.57817,0.538799 -3.21396,0.538799 -1.63578,0 -3.21395,-0.538799 l -3.73359,3.733671 q 3.29104,1.732061 6.94754,1.732061 z m 0,-7.390177 q 3.05996,0 5.22501,-2.165164 2.16522,-2.165164 2.16522,-5.225066 0,-3.059875 -2.16522,-5.225039 -2.16505,-2.165164 -5.22501,-2.165164 -3.05996,0 -5.22501,2.165164 -2.16522,2.165164 -2.16522,5.225039 0,3.059902 2.16522,5.225066 2.16505,2.165164 5.22501,2.165164 z m 9.31471,-4.17633 3.73358,3.733697 q 1.73204,-3.291064 1.73204,-6.947597 0,-3.656506 -1.73204,-6.94757 l -3.73358,3.733697 q 0.53877,1.578034 0.53877,3.213873 0,1.635866 -0.53877,3.2139 z"
       id="path10878"
       inkscape:connector-curvature="0"
       style="fill:#666666" />
  </g>
</svg>
