<?xml version="1.0" encoding="UTF-8" standalone="no"?>
<!-- Created with Inkscape (http://www.inkscape.org/) -->

<svg
   xmlns:dc="http://purl.org/dc/elements/1.1/"
   xmlns:cc="http://creativecommons.org/ns#"
   xmlns:rdf="http://www.w3.org/1999/02/22-rdf-syntax-ns#"
   xmlns:svg="http://www.w3.org/2000/svg"
   xmlns="http://www.w3.org/2000/svg"
   xmlns:sodipodi="http://sodipodi.sourceforge.net/DTD/sodipodi-0.dtd"
   xmlns:inkscape="http://www.inkscape.org/namespaces/inkscape"
   width="337.96378"
   height="34"
   id="svg11581"
   version="1.1"
   inkscape:version="0.48.4 r9939"
   sodipodi:docname="New document 69">
  <defs
     id="defs11583" />
  <sodipodi:namedview
     id="base"
     pagecolor="#ffffff"
     bordercolor="#666666"
     borderopacity="1.0"
     inkscape:pageopacity="0.0"
     inkscape:pageshadow="2"
     inkscape:zoom="0.35"
     inkscape:cx="321.12475"
     inkscape:cy="-443"
     inkscape:document-units="px"
     inkscape:current-layer="layer1"
     showgrid="false"
     fit-margin-top="1"
     fit-margin-right="1"
     fit-margin-bottom="1"
     fit-margin-left="1"
     inkscape:window-width="1920"
     inkscape:window-height="1025"
     inkscape:window-x="0"
     inkscape:window-y="30"
     inkscape:window-maximized="1" />
  <metadata
     id="metadata11586">
    <rdf:RDF>
      <cc:Work
         rdf:about="">
        <dc:format>image/svg+xml</dc:format>
        <dc:type
           rdf:resource="http://purl.org/dc/dcmitype/StillImage" />
        <dc:title></dc:title>
      </cc:Work>
    </rdf:RDF>
  </metadata>
  <g
     inkscape:label="Layer 1"
     inkscape:groupmode="layer"
     id="layer1"
     transform="translate(-53.875252,-55.36218)">
    <g
       transform="translate(41.022139,-554.72577)"
       id="g10461">
      <path
         inkscape:connector-curvature="0"
         id="path8876"
         d="m 23.73646,627.08794 q -2.699966,0.0832 -4.416614,2.13322 l -2.233313,0 q -1.366618,0 -2.299876,-0.67474 -0.933544,-0.67507 -0.933544,-1.97515 0,-5.88332 2.066704,-5.88332 0.09993,0 0.725104,0.35005 0.625034,0.35006 1.624807,0.70834 1.000082,0.35828 1.983375,0.35828 1.116657,0 2.216858,-0.38332 -0.08323,0.61678 -0.08323,1.09989 0,2.31664 1.349828,4.26675 z m 17.849834,10.6167 q 0,1.99988 -1.216465,3.15834 -1.21675,1.15818 -3.233419,1.15818 l -14.566665,0 q -2.016645,0 -3.23311,-1.15818 -1.21675,-1.15846 -1.21675,-3.15834 0,-0.88351 0.05819,-1.7249 0.05819,-0.84168 0.233482,-1.81674 0.174812,-0.97507 0.441587,-1.80852 0.266751,-0.83314 0.716566,-1.62478 0.45015,-0.79164 1.033352,-1.35014 0.583227,-0.55819 1.424905,-0.89174 0.841701,-0.33326 1.858574,-0.33326 0.166704,0 0.716566,0.35828 0.549933,0.35828 1.216751,0.80018 0.666531,0.44161 1.783187,0.7999 1.116657,0.35828 2.250127,0.35828 1.133136,0 2.249792,-0.35828 1.116657,-0.35829 1.783498,-0.7999 0.666507,-0.4419 1.21644,-0.80018 0.550268,-0.35828 0.716877,-0.35828 1.016586,0 1.858264,0.33326 0.841701,0.33355 1.424904,0.89174 0.583513,0.5585 1.033352,1.35014 0.450149,0.79164 0.716876,1.62478 0.266417,0.83345 0.441588,1.80852 0.174813,0.97506 0.233243,1.81674 0.05819,0.84139 0.05819,1.7249 z M 24.519851,616.4212 q 0,1.76671 -1.25002,3.01673 -1.25002,1.25002 -3.016728,1.25002 -1.766707,0 -3.016417,-1.25002 -1.250044,-1.25002 -1.250044,-3.01673 0,-1.7664 1.250044,-3.01642 1.24971,-1.25004 3.016417,-1.25004 1.766708,0 3.016728,1.25004 1.25002,1.25002 1.25002,3.01642 z m 11.733384,6.39999 q 0,2.65019 -1.875054,4.52494 -1.875054,1.87503 -4.524937,1.87503 -2.650217,0 -4.525247,-1.87503 -1.874743,-1.87475 -1.874743,-4.52494 0,-2.64991 1.874743,-4.52496 1.87503,-1.87503 4.525247,-1.87503 2.649883,0 4.524937,1.87503 1.875054,1.87505 1.875054,4.52496 z m 9.59983,3.75008 q 0,1.30008 -0.933258,1.97515 -0.933234,0.67474 -2.300161,0.67474 l -2.233337,0 q -1.716649,-2.0499 -4.416615,-2.13322 1.350138,-1.95011 1.350138,-4.26675 0,-0.48311 -0.08323,-1.09989 1.099867,0.38332 2.216524,0.38332 0.983316,0 1.983399,-0.35828 1.000083,-0.35828 1.625093,-0.70834 0.62501,-0.35005 0.724818,-0.35005 2.06668,0 2.06668,5.88332 z M 43.719823,616.4212 q 0,1.76671 -1.25002,3.01673 -1.25002,1.25002 -3.016728,1.25002 -1.766708,0 -3.016752,-1.25002 -1.25002,-1.25002 -1.25002,-3.01673 0,-1.7664 1.25002,-3.01642 1.250044,-1.25004 3.016752,-1.25004 1.766708,0 3.016728,1.25004 1.25002,1.25002 1.25002,3.01642 z"
         horiz-adv-x="1920"
         unicode=""
         style="fill:#666666" />
      <path
         unicode=""
         horiz-adv-x="1280"
         d="m 81.002226,621.89005 -3.61394,3.61369 0,10.19819 q 0,0.56929 -0.40836,0.97765 -0.40839,0.40837 -0.97765,0.40837 -0.5695,0 -0.97787,-0.40837 -0.40837,-0.40836 -0.40837,-0.97765 l 0,-4.75247 -0.79205,0 0,4.75247 q 0,0.56929 -0.40836,0.97765 -0.40837,0.40837 -0.97788,0.40837 -0.56927,0 -0.97764,-0.40837 -0.40837,-0.40836 -0.40837,-0.97765 l 0,-10.19819 -3.613938,-3.61369 q -0.34649,-0.34651 -0.34649,-0.84167 0,-0.49493 0.34649,-0.84145 0.346507,-0.34673 0.841687,-0.34673 0.494932,0 0.841671,0.34673 l 2.82164,2.82166 4.55441,0 2.8219,-2.82166 q 0.34651,-0.34673 0.84144,-0.34673 0.49516,0 0.84168,0.34673 0.34649,0.34652 0.34649,0.84145 0,0.49516 -0.34649,0.84167 z m -4.00985,-2.02985 q 0,1.15101 -0.81063,1.96163 -0.81083,0.81086 -1.96163,0.81086 -1.151,0 -1.96162,-0.81086 -0.81086,-0.81062 -0.81086,-1.96163 0,-1.15079 0.81086,-1.96163 0.81062,-0.81062 1.96162,-0.81062 1.1508,0 1.96163,0.81062 0.81063,0.81084 0.81063,1.96163 z"
         id="path10820"
         inkscape:connector-curvature="0"
         style="fill:#666666" />
      <path
         unicode=""
         horiz-adv-x="1920"
         d="m 115.38689,631.35466 6.40004,0 0,-1.60011 -2.13335,0 0,-7.46659 -1.90002,0 -2.46663,2.28333 1.2833,1.33329 q 0.70001,-0.61668 0.91669,-0.94997 l 0.0333,0 0,4.79994 -2.13335,0 0,1.60011 z m 8.53334,-4.26677 q 0,1.16667 -0.34996,2.36675 -0.35004,1.19996 -0.99168,2.23331 -0.6417,1.03326 -1.6917,1.68332 -1.04998,0.65004 -2.29998,0.65004 -1.25,0 -2.29999,-0.65004 -1.04999,-0.65006 -1.6917,-1.68332 -0.64164,-1.03335 -0.99163,-2.23331 -0.35001,-1.20008 -0.35001,-2.36675 0,-1.16658 0.35001,-2.36663 0.34999,-1.19996 0.99163,-2.23332 0.64171,-1.03338 1.6917,-1.68332 1.04999,-0.65006 2.29999,-0.65006 1.25,0 2.29998,0.65006 1.05,0.64994 1.6917,1.68332 0.64164,1.03336 0.99168,2.23332 0.34996,1.20005 0.34996,2.36663 z m 8.53337,4.26677 0,-8.53342 q -1.76667,0 -3.01669,-1.25 -1.24999,-1.24998 -1.24999,-3.01669 l -19.20002,0 q 0,1.76671 -1.25001,3.01669 -1.24997,1.25 -3.01664,1.25 l 0,8.53342 q 1.76667,0 3.01664,1.24987 1.25001,1.25008 1.25001,3.01669 l 19.20002,0 q 0,-1.76661 1.24999,-3.01669 1.25002,-1.24987 3.01669,-1.24987 z m 2.13331,-13.86675 0,19.20005 q 0,0.43334 -0.31669,0.74999 -0.31666,0.31666 -0.74998,0.31666 l -29.86667,0 q -0.43332,0 -0.74999,-0.31666 -0.31668,-0.31665 -0.31668,-0.74999 l 0,-19.20005 q 0,-0.43332 0.31668,-0.74998 0.31667,-0.31664 0.74999,-0.31664 l 29.86667,0 q 0.43332,0 0.74998,0.31664 0.31669,0.31666 0.31669,0.74998 z"
         id="path10414"
         inkscape:connector-curvature="0"
         style="fill:#666666" />
      <path
         unicode=""
         horiz-adv-x="2048"
         d="m 261.68828,613.58926 q 0,-0.21865 0.1404,-0.35931 0.14084,-0.1404 0.35931,-0.1404 l 4.49947,0 q 0.40624,0 0.7032,0.29667 0.29693,0.29696 0.29693,0.70318 l 0,4.49946 q 0,0.21886 -0.14084,0.35933 -0.1404,0.14085 -0.35934,0.14085 l -0.99985,0 q -0.21887,0 -0.35931,-0.14085 -0.14084,-0.1404 -0.14084,-0.35933 l 0,-2.09352 -3.96821,3.98395 q 1.18722,1.48418 1.67957,3.34344 0.49206,1.85923 0.14823,3.85895 -0.4998,2.81217 -2.56987,4.84334 -2.07008,2.03118 -4.89798,2.45286 -3.4842,0.53125 -6.3899,-1.40609 -1.82807,1.2187 -3.99971,1.45299 l 0,2.06237 1.49992,0 q 0.21864,0 0.35931,0.14039 0.1404,0.14084 0.1404,0.35933 l 0,1.00013 q 0,0.21864 -0.1404,0.35934 -0.14084,0.14039 -0.35931,0.14039 l -1.49992,0 0,1.49992 q 0,0.21865 -0.14084,0.35931 -0.1404,0.1404 -0.35932,0.1404 l -0.99986,0 q -0.21864,0 -0.3593,-0.1404 -0.1404,-0.14085 -0.1404,-0.35931 l 0,-1.49992 -1.49993,0 q -0.21886,0 -0.35933,-0.14039 -0.14084,-0.14085 -0.14084,-0.35934 l 0,-1.00013 q 0,-0.21864 0.14084,-0.35933 0.1404,-0.14039 0.35933,-0.14039 l 1.49993,0 0,-2.06237 q -2.4217,-0.26545 -4.36676,-1.71076 -1.94532,-1.44527 -2.92173,-3.71046 -0.9764,-2.26547 -0.61707,-4.79642 0.39049,-2.92175 2.49205,-5.03876 2.10125,-2.11671 5.00728,-2.56984 3.49962,-0.53128 6.40563,1.40607 2.28092,-1.51537 4.99955,-1.51537 3.14002,0 5.60862,1.96853 l 3.98395,-3.96852 -2.09354,0 q -0.21864,0 -0.3593,-0.1404 -0.1404,-0.14085 -0.1404,-0.35931 l 0,-1.00015 z m -11.99881,17.38914 q 1.9997,-2.04692 1.9997,-4.89027 0,-2.84336 -1.9997,-4.89025 -2.00001,2.04689 -2.00001,4.89025 0,2.84335 2.00001,4.89027 z m -11.99881,-4.89027 q 0,2.89027 2.05436,4.94491 2.05462,2.05433 4.9449,2.05433 1.82776,0 3.4058,-0.89056 -2.40595,-2.60904 -2.40595,-6.10868 0,-3.49962 2.40595,-6.10868 -1.57804,-0.89056 -3.4058,-0.89056 -2.89028,0 -4.9449,2.05434 -2.05436,2.05464 -2.05436,4.9449 z m 16.99836,6.99924 q 2.89027,0 4.94461,-2.05433 2.05465,-2.05464 2.05465,-4.94491 0,-2.89026 -2.05465,-4.9449 -2.05434,-2.05434 -4.94461,-2.05434 -1.82807,0 -3.40609,0.89056 2.40594,2.60906 2.40594,6.10868 0,3.49964 -2.40594,6.10868 1.57802,0.89056 3.40609,0.89056 z"
         id="path11046"
         inkscape:connector-curvature="0"
         style="fill:#666666" />
      <path
         unicode=""
         horiz-adv-x="1664"
         d="m 219.55585,634.61717 q 0,-0.78416 -0.54905,-1.33311 l -4.0782,-4.07831 q -0.54909,-0.54933 -1.33361,-0.54933 -0.82324,0 -1.41167,0.62758 0.0581,0.0589 0.3727,0.36262 0.31379,0.30411 0.42151,0.42151 0.10802,0.11785 0.29398,0.37269 0.18631,0.25504 0.25505,0.50015 0.0693,0.24495 0.0693,0.53927 0,0.78416 -0.54895,1.33313 -0.54891,0.54895 -1.3331,0.54895 -0.29446,0 -0.53924,-0.0684 -0.24522,-0.0684 -0.50023,-0.25505 -0.25505,-0.1863 -0.37233,-0.29404 -0.11785,-0.10774 -0.42185,-0.42151 -0.30367,-0.3138 -0.3625,-0.37269 -0.64715,0.60787 -0.64715,1.4315 0,0.78412 0.54909,1.33311 l 4.03917,4.05892 q 0.52959,0.52958 1.33344,0.52958 0.7842,0 1.33312,-0.50983 l 2.88231,-2.86297 q 0.54892,-0.54898 0.54892,-1.31371 z m -13.78428,-13.82334 q 0,-0.78412 -0.54891,-1.33346 l -4.03918,-4.05857 q -0.54891,-0.54897 -1.33312,-0.54897 -0.76483,0 -1.33344,0.52922 l -2.88247,2.86297 q -0.54892,0.54898 -0.54892,1.31335 0,0.7845 0.54892,1.3335 l 4.07837,4.07831 q 0.52956,0.52958 1.33344,0.52958 0.82369,0 1.4118,-0.60786 -0.0581,-0.0589 -0.37267,-0.36265 -0.31379,-0.30408 -0.42153,-0.42188 -0.10802,-0.11727 -0.29413,-0.37232 -0.1863,-0.25504 -0.25476,-0.50012 -0.0694,-0.24495 -0.0694,-0.53927 0,-0.78416 0.54892,-1.3331 0.54893,-0.54898 1.33344,-0.54898 0.29413,0 0.53893,0.0684 0.24522,0.0684 0.50022,0.25504 0.25476,0.1863 0.37266,0.29404 0.11783,0.10774 0.42153,0.42151 0.30364,0.31383 0.36251,0.37269 0.64711,-0.60784 0.64711,-1.43147 z m 17.54916,13.82334 q 0,2.35313 -1.66676,3.98067 l -2.8823,2.8626 q -1.62756,1.62751 -3.9803,1.62751 -2.37261,0 -4.00001,-1.66665 l -4.03917,-4.05892 q -1.62757,-1.62751 -1.62757,-3.98031 0,-2.41166 1.7256,-4.09807 l -1.7256,-1.72551 q -1.68643,1.72551 -4.07836,1.72551 -2.35308,0 -4.00001,-1.6469 l -4.07834,-4.07867 q -1.64726,-1.64693 -1.64726,-4.00006 0,-2.35277 1.66676,-3.98028 l 2.8823,-2.86263 q 1.62743,-1.62751 3.98065,-1.62751 2.3721,0 3.99966,1.66665 l 4.0392,4.05892 q 1.62757,1.62751 1.62757,3.98031 0,2.41166 -1.72563,4.09807 l 1.72563,1.72554 q 1.68643,-1.72554 4.0782,-1.72554 2.35321,0 4.00014,1.6469 l 4.07837,4.07867 q 1.64723,1.64693 1.64723,3.9997 z"
         id="path10374"
         inkscape:connector-curvature="0"
         style="fill:#666666" />
      <path
         unicode=""
         d="m 165.62033,619.75477 0,9.3333 q 0,0.29184 -0.18722,0.47913 -0.18781,0.1878 -0.47916,0.1878 l -6.66673,0 q -0.29185,0 -0.47911,-0.1878 -0.18782,-0.18722 -0.18782,-0.47913 l 0,-1.33329 q 0,-0.29185 0.18782,-0.47915 0.1872,-0.18781 0.47911,-0.18781 l 4.66664,0 0,-7.33319 q 0,-0.29185 0.18721,-0.47912 0.18781,-0.18782 0.47912,-0.18782 l 1.33365,0 q 0.29155,0 0.47915,0.18782 0.18722,0.1872 0.18722,0.47912 z m 8.66682,7.3332 q 0,-3.08311 -1.52094,-5.68749 -1.52097,-2.60399 -4.12496,-4.12493 -2.60434,-1.52097 -5.68749,-1.52097 -3.08346,0 -5.68745,1.52097 -2.60437,1.52094 -4.12496,4.12493 -1.52094,2.60438 -1.52094,5.68749 0,3.08347 1.52094,5.68745 1.52059,2.60438 4.12496,4.12493 2.60399,1.52097 5.68745,1.52097 3.08315,0 5.68749,-1.52097 2.60399,-1.52055 4.12496,-4.12493 1.52094,-2.60398 1.52094,-5.68745 z m 4.66666,0 q 0,4.3542 -2.14584,8.03127 -2.14581,3.67709 -5.8229,5.8229 -3.6771,2.14581 -8.03131,2.14581 -4.35417,0 -8.03127,-2.14581 -3.67707,-2.14581 -5.8229,-5.8229 -2.14581,-3.67707 -2.14581,-8.03127 0,-4.35421 2.14581,-8.03131 2.14583,-3.67707 5.8229,-5.8229 3.6771,-2.14581 8.03127,-2.14581 4.35421,0 8.03131,2.14581 3.67709,2.14583 5.8229,5.8229 2.14584,3.6771 2.14584,8.03131 z"
         id="path10080"
         inkscape:connector-curvature="0"
         style="fill:#666666" />
      <path
         unicode=""
         horiz-adv-x="1792"
         d="m 302.91175,629.37334 5.44613,0 q -0.0897,0.10707 -0.17861,0.18781 -0.0897,0.0805 -0.16047,0.1339 l -0.0529,0.0718 -11.12487,10.71414 q -0.32132,0.32145 -0.78569,0.32145 -0.46436,0 -0.78571,-0.32145 l -11.1429,-10.74979 q -0.0897,-0.036 -0.37496,-0.3574 l 6.5893,0 q 0.39269,0 0.70519,-0.24096 0.31269,-0.24096 0.40197,-0.61602 l 1.25007,-5.01785 3.39272,11.91061 q 0.10732,0.35705 0.41063,0.58921 0.30341,0.23228 0.69656,0.23228 0.37493,0 0.67849,-0.23228 0.30369,-0.23227 0.4106,-0.58921 l 2.60706,-8.66075 1.00025,2.00014 q 0.32132,0.62486 1.01788,0.62486 z m 9.14272,-7.64285 q 0,2.58938 -1.83927,5.35727 l -6.58942,0 -1.98215,-3.94634 q -0.14258,-0.30377 -0.45511,-0.48228 -0.31253,-0.17861 -0.65207,-0.14283 -0.80332,0.0892 -0.99982,0.82171 l -2.30362,7.67849 -3.49994,-12.25002 q -0.10732,-0.35707 -0.41959,-0.58921 -0.31251,-0.23227 -0.70523,-0.23227 -0.39312,0 -0.69653,0.24096 -0.30371,0.24096 -0.39299,0.61601 l -2.07146,8.2857 -7.55354,0 q -1.83926,-2.76789 -1.83926,-5.35726 0,-3.92835 2.26793,-6.14267 2.26795,-2.21429 6.26795,-2.21429 1.10703,0 2.2587,0.38387 1.15195,0.38387 2.1431,1.03587 0.991,0.65169 1.70519,1.22324 0.71447,0.57125 1.35727,1.21407 0.64279,-0.64282 1.35698,-1.21407 0.71447,-0.57155 1.70547,-1.22324 0.99115,-0.652 2.14267,-1.03587 1.15198,-0.38387 2.25883,-0.38387 4.00031,0 6.26795,2.21429 2.26795,2.21432 2.26795,6.14267 z"
         id="path11030"
         inkscape:connector-curvature="0"
         style="fill:#666666" />
      <text
         xml:space="preserve"
         style="font-size:33.82574081px;font-style:normal;font-weight:normal;line-height:125%;letter-spacing:0px;word-spacing:0px;fill:#000000;fill-opacity:1;stroke:none;font-family:Sans"
         x="330.30518"
         y="639.94635"
         id="text9166-3-1"
         sodipodi:linespacing="125%"><tspan
           style="font-size:36px;font-style:italic;font-variant:normal;font-weight:bold;font-stretch:normal;fill:#666666;font-family:Open Sans;-inkscape-font-specification:Open Sans Bold Italic"
           sodipodi:role="line"
           id="tspan9168-5-4"
           x="330.30518"
           y="639.94635">S</tspan></text>
    </g>
  </g>
</svg>
