<?xml version="1.0" encoding="UTF-8" standalone="no"?>
<!-- Created with Inkscape (http://www.inkscape.org/) -->

<svg
   xmlns:dc="http://purl.org/dc/elements/1.1/"
   xmlns:cc="http://creativecommons.org/ns#"
   xmlns:rdf="http://www.w3.org/1999/02/22-rdf-syntax-ns#"
   xmlns:svg="http://www.w3.org/2000/svg"
   xmlns="http://www.w3.org/2000/svg"
   xmlns:sodipodi="http://sodipodi.sourceforge.net/DTD/sodipodi-0.dtd"
   xmlns:inkscape="http://www.inkscape.org/namespaces/inkscape"
   width="50"
   height="50"
   id="svg11581"
   version="1.1"
   inkscape:version="0.48.4 r9939"
   sodipodi:docname="tracyml_icons_risk_eo.svg"
   inkscape:export-filename="/home/andy/Projects/survey_51761.png"
   inkscape:export-xdpi="90"
   inkscape:export-ydpi="90">
  <defs
     id="defs11583" />
  <sodipodi:namedview
     id="base"
     pagecolor="#ffffff"
     bordercolor="#666666"
     borderopacity="1.0"
     inkscape:pageopacity="0.0"
     inkscape:pageshadow="2"
     inkscape:zoom="1.979899"
     inkscape:cx="-53.957133"
     inkscape:cy="-62.334796"
     inkscape:document-units="px"
     inkscape:current-layer="layer1"
     showgrid="false"
     fit-margin-top="5"
     fit-margin-right="5"
     fit-margin-bottom="5"
     fit-margin-left="5"
     inkscape:window-width="1920"
     inkscape:window-height="1025"
     inkscape:window-x="0"
     inkscape:window-y="30"
     inkscape:window-maximized="1"
     units="px" />
  <metadata
     id="metadata11586">
    <rdf:RDF>
      <cc:Work
         rdf:about="">
        <dc:format>image/svg+xml</dc:format>
        <dc:type
           rdf:resource="http://purl.org/dc/dcmitype/StillImage" />
        <dc:title></dc:title>
      </cc:Work>
    </rdf:RDF>
  </metadata>
  <g
     inkscape:label="Layer 1"
     inkscape:groupmode="layer"
     id="layer1"
     transform="translate(-270.45974,-42.610592)">
    <path
       style="fill:#666666"
       inkscape:connector-curvature="0"
       id="path11046"
       d="m 305.46043,54.111897 q 0,-0.21865 0.1404,-0.35931 0.14084,-0.1404 0.35931,-0.1404 l 4.49947,0 q 0.40624,0 0.7032,0.29667 0.29693,0.29696 0.29693,0.70318 l 0,4.49946 q 0,0.21886 -0.14084,0.35933 -0.1404,0.14085 -0.35934,0.14085 l -0.99985,0 q -0.21887,0 -0.35931,-0.14085 -0.14084,-0.1404 -0.14084,-0.35933 l 0,-2.09352 -3.96821,3.98395 q 1.18722,1.48418 1.67957,3.34344 0.49206,1.85923 0.14823,3.85895 -0.4998,2.81217 -2.56987,4.84334 -2.07008,2.03118 -4.89798,2.45286 -3.4842,0.53125 -6.3899,-1.40609 -1.82807,1.2187 -3.99971,1.45299 l 0,2.06237 1.49992,0 q 0.21864,0 0.35931,0.14039 0.1404,0.14084 0.1404,0.35933 l 0,1.00013 q 0,0.21864 -0.1404,0.35934 -0.14084,0.14039 -0.35931,0.14039 l -1.49992,0 0,1.49992 q 0,0.21865 -0.14084,0.35931 -0.1404,0.1404 -0.35932,0.1404 l -0.99986,0 q -0.21864,0 -0.3593,-0.1404 -0.1404,-0.14085 -0.1404,-0.35931 l 0,-1.49992 -1.49993,0 q -0.21886,0 -0.35933,-0.14039 -0.14084,-0.14085 -0.14084,-0.35934 l 0,-1.00013 q 0,-0.21864 0.14084,-0.35933 0.1404,-0.14039 0.35933,-0.14039 l 1.49993,0 0,-2.06237 q -2.4217,-0.26545 -4.36676,-1.71076 -1.94532,-1.44527 -2.92173,-3.71046 -0.9764,-2.26547 -0.61707,-4.79642 0.39049,-2.92175 2.49205,-5.03876 2.10125,-2.11671 5.00728,-2.56984 3.49962,-0.53128 6.40563,1.40607 2.28092,-1.51537 4.99955,-1.51537 3.14002,0 5.60862,1.96853 l 3.98395,-3.96852 -2.09354,0 q -0.21864,0 -0.3593,-0.1404 -0.1404,-0.14085 -0.1404,-0.35931 l 0,-1.00015 z m -11.99881,17.38914 q 1.9997,-2.04692 1.9997,-4.89027 0,-2.84336 -1.9997,-4.89025 -2.00001,2.04689 -2.00001,4.89025 0,2.84335 2.00001,4.89027 z m -11.99881,-4.89027 q 0,2.89027 2.05436,4.94491 2.05462,2.05433 4.9449,2.05433 1.82776,0 3.4058,-0.89056 -2.40595,-2.60904 -2.40595,-6.10868 0,-3.49962 2.40595,-6.10868 -1.57804,-0.89056 -3.4058,-0.89056 -2.89028,0 -4.9449,2.05434 -2.05436,2.05464 -2.05436,4.9449 z m 16.99836,6.99924 q 2.89027,0 4.94461,-2.05433 2.05465,-2.05464 2.05465,-4.94491 0,-2.89026 -2.05465,-4.9449 -2.05434,-2.05434 -4.94461,-2.05434 -1.82807,0 -3.40609,0.89056 2.40594,2.60906 2.40594,6.10868 0,3.49964 -2.40594,6.10868 1.57802,0.89056 3.40609,0.89056 z"
       horiz-adv-x="2048"
       unicode="" />
  </g>
</svg>
