<?xml version="1.0" encoding="UTF-8" standalone="no"?>
<!-- Created with Inkscape (http://www.inkscape.org/) -->

<svg
   xmlns:dc="http://purl.org/dc/elements/1.1/"
   xmlns:cc="http://creativecommons.org/ns#"
   xmlns:rdf="http://www.w3.org/1999/02/22-rdf-syntax-ns#"
   xmlns:svg="http://www.w3.org/2000/svg"
   xmlns="http://www.w3.org/2000/svg"
   xmlns:sodipodi="http://sodipodi.sourceforge.net/DTD/sodipodi-0.dtd"
   xmlns:inkscape="http://www.inkscape.org/namespaces/inkscape"
   width="50"
   height="50"
   id="svg11581"
   version="1.1"
   inkscape:version="0.48.4 r9939"
   sodipodi:docname="tracyml_icons_risk_hs.svg"
   inkscape:export-filename="/home/andy/Projects/survey_08051.png"
   inkscape:export-xdpi="90"
   inkscape:export-ydpi="90">
  <defs
     id="defs11583" />
  <sodipodi:namedview
     id="base"
     pagecolor="#ffffff"
     bordercolor="#666666"
     borderopacity="1.0"
     inkscape:pageopacity="0.0"
     inkscape:pageshadow="2"
     inkscape:zoom="1.979899"
     inkscape:cx="-98.324008"
     inkscape:cy="-62.618716"
     inkscape:document-units="px"
     inkscape:current-layer="layer1"
     showgrid="false"
     fit-margin-top="5"
     fit-margin-right="5"
     fit-margin-bottom="5"
     fit-margin-left="5"
     inkscape:window-width="1920"
     inkscape:window-height="1025"
     inkscape:window-x="0"
     inkscape:window-y="30"
     inkscape:window-maximized="1"
     units="px" />
  <metadata
     id="metadata11586">
    <rdf:RDF>
      <cc:Work
         rdf:about="">
        <dc:format>image/svg+xml</dc:format>
        <dc:type
           rdf:resource="http://purl.org/dc/dcmitype/StillImage" />
        <dc:title></dc:title>
      </cc:Work>
    </rdf:RDF>
  </metadata>
  <g
     inkscape:label="Layer 1"
     inkscape:groupmode="layer"
     id="layer1"
     transform="translate(-314.82661,-42.326672)">
    <path
       style="fill:#666666"
       inkscape:connector-curvature="0"
       id="path11030"
       d="m 346.68389,69.612062 5.44613,0 q -0.0897,0.10707 -0.17861,0.18781 -0.0897,0.0805 -0.16047,0.1339 l -0.0529,0.0718 -11.12487,10.71414 q -0.32132,0.32145 -0.78569,0.32145 -0.46436,0 -0.78571,-0.32145 l -11.1429,-10.74979 q -0.0897,-0.036 -0.37496,-0.3574 l 6.5893,0 q 0.39269,0 0.70519,-0.24096 0.31269,-0.24096 0.40197,-0.61602 l 1.25007,-5.01785 3.39272,11.91061 q 0.10732,0.35705 0.41063,0.58921 0.30341,0.23228 0.69656,0.23228 0.37493,0 0.67849,-0.23228 0.30369,-0.23227 0.4106,-0.58921 l 2.60706,-8.66075 1.00025,2.00014 q 0.32132,0.62486 1.01788,0.62486 z m 9.14272,-7.64285 q 0,2.58938 -1.83927,5.35727 l -6.58942,0 -1.98215,-3.94634 q -0.14258,-0.30377 -0.45511,-0.48228 -0.31253,-0.17861 -0.65207,-0.14283 -0.80332,0.0892 -0.99982,0.82171 l -2.30362,7.67849 -3.49994,-12.25002 q -0.10732,-0.35707 -0.41959,-0.58921 -0.31251,-0.23227 -0.70523,-0.23227 -0.39312,0 -0.69653,0.24096 -0.30371,0.24096 -0.39299,0.61601 l -2.07146,8.2857 -7.55354,0 q -1.83926,-2.76789 -1.83926,-5.35726 0,-3.92835 2.26793,-6.14267 2.26795,-2.21429 6.26795,-2.21429 1.10703,0 2.2587,0.38387 1.15195,0.38387 2.1431,1.03587 0.991,0.65169 1.70519,1.22324 0.71447,0.57125 1.35727,1.21407 0.64279,-0.64282 1.35698,-1.21407 0.71447,-0.57155 1.70547,-1.22324 0.99115,-0.652 2.14267,-1.03587 1.15198,-0.38387 2.25883,-0.38387 4.00031,0 6.26795,2.21429 2.26795,2.21432 2.26795,6.14267 z"
       horiz-adv-x="1792"
       unicode="" />
  </g>
</svg>
