<?xml version="1.0" encoding="UTF-8" standalone="no"?>
<!-- Created with Inkscape (http://www.inkscape.org/) -->
<svg id="svg9680" xmlns:rdf="http://www.w3.org/1999/02/22-rdf-syntax-ns#" xmlns="http://www.w3.org/2000/svg" version="1.1" xmlns:cc="http://creativecommons.org/ns#" viewBox="0 0 80 15.321" xmlns:dc="http://purl.org/dc/elements/1.1/">
 <metadata id="metadata9685">
  <rdf:RDF>
   <cc:Work rdf:about="">
    <dc:format>image/svg+xml</dc:format>
    <dc:type rdf:resource="http://purl.org/dc/dcmitype/StillImage"/>
    <dc:title/>
   </cc:Work>
  </rdf:RDF>
 </metadata>
 <g id="layer1" transform="translate(-276.24 -393.27)">
  <path id="path10444" unicode="" fill="#666" horiz-adv-x="1792" d="m318.05 395.48q1.4474 0 2.7056 0.49193 1.2582 0.49192 2.0008 1.3339 0.74263 0.84196 0.74263 1.8069 0 0.77575-0.5014 1.4947-0.50139 0.71899-1.4096 1.2488l-0.91765 0.52977 0.33111 0.79467q-0.32164-0.18922-0.58653-0.36895l-0.41625-0.29327-0.5014 0.0945q-0.7379 0.13249-1.4474 0.13249-1.4474 0-2.7056-0.49195-1.2582-0.4919-2.0008-1.3339-0.74263-0.84197-0.74263-1.8069 0-0.96495 0.74263-1.8069 0.74263-0.84196 2.0008-1.3339t2.7056-0.49194zm0-1.2109q-1.8069 0-3.3442 0.64801-1.5373 0.64806-2.4266 1.7644-0.88926 1.1163-0.88926 2.4313t0.88926 2.4313q0.88927 1.1163 2.4266 1.7644 1.5373 0.64803 3.3442 0.64803 0.81358 0 1.665-0.15136 1.1731 0.83251 2.63 1.2109 0.34057 0.0851 0.81359 0.15137h0.0284q0.10406 0 0.19393-0.0756 0.0899-0.0756 0.1088-0.19867 0.01-0.0284 0.01-0.0616 0-0.0331-0.005-0.0616-0.005-0.0284-0.0189-0.0567l-0.0237-0.0473t-0.0331-0.052-0.0378-0.0473q-0.005 0.004-0.0426-0.0473-0.0378-0.052-0.0378-0.0425-0.0473-0.0567-0.21759-0.23652-0.17029-0.17973-0.24597-0.27906-0.0757-0.0994-0.21285-0.27434-0.13718-0.17503-0.23651-0.36422-0.0993-0.1892-0.19394-0.41625 1.1731-0.68115 1.8448-1.6745 0.67168-0.99334 0.67168-2.1191 0-1.315-0.88927-2.4313t-2.4266-1.7644q-1.5373-0.64803-3.3442-0.64803zm-7.7764 11.059q-0.0946 0.22703-0.19393 0.41625-0.0993 0.1892-0.23651 0.36422-0.13717 0.175-0.21285 0.27434-0.0757 0.0994-0.24597 0.27908-0.17029 0.17975-0.21759 0.23651-0.009 0.0103-0.0378 0.0425-0.0284 0.0331-0.0426 0.0473-0.0142 0.0146-0.0378 0.0473-0.0237 0.0331-0.0331 0.052l-0.0237 0.0473t-0.0189 0.0567-0.005 0.0616q0.0142 0.004 0.01 0.0614 0.0284 0.1325 0.12298 0.20811 0.0946 0.0756 0.20813 0.0662 0.47301-0.0662 0.81358-0.15135 1.4569-0.37842 2.63-1.2109 0.85142 0.15136 1.665 0.15136 2.5637 0 4.4652-1.2488-0.5487 0.0378-0.83251 0.0378-1.5231 0-2.9232-0.4257-1.4001-0.42572-2.4975-1.2204-1.1825-0.87034-1.8164-2.0056-0.63383-1.1352-0.63383-2.4029 0-0.72845 0.21758-1.438-1.2204 0.67169-1.9299 1.6839-0.70952 1.0122-0.70952 2.1759 0 1.1352 0.67168 2.1238 0.67168 0.98859 1.8448 1.6698z"/>
 </g>
</svg>
