<?xml version="1.0" encoding="UTF-8" standalone="no"?>
<!-- Created with Inkscape (http://www.inkscape.org/) -->

<svg
   xmlns:dc="http://purl.org/dc/elements/1.1/"
   xmlns:cc="http://creativecommons.org/ns#"
   xmlns:rdf="http://www.w3.org/1999/02/22-rdf-syntax-ns#"
   xmlns:svg="http://www.w3.org/2000/svg"
   xmlns="http://www.w3.org/2000/svg"
   xmlns:sodipodi="http://sodipodi.sourceforge.net/DTD/sodipodi-0.dtd"
   xmlns:inkscape="http://www.inkscape.org/namespaces/inkscape"
   width="44.500031"
   height="44.5"
   id="svg11581"
   version="1.1"
   inkscape:version="0.48.4 r9939"
   sodipodi:docname="tracyml_icons_risk_wh.svg">
  <defs
     id="defs11583" />
  <sodipodi:namedview
     id="base"
     pagecolor="#ffffff"
     bordercolor="#666666"
     borderopacity="1.0"
     inkscape:pageopacity="0.0"
     inkscape:pageshadow="2"
     inkscape:zoom="1.979899"
     inkscape:cx="34.776682"
     inkscape:cy="-60.333206"
     inkscape:document-units="px"
     inkscape:current-layer="layer1"
     showgrid="false"
     fit-margin-top="5"
     fit-margin-right="5"
     fit-margin-bottom="5"
     fit-margin-left="5"
     inkscape:window-width="1920"
     inkscape:window-height="1025"
     inkscape:window-x="0"
     inkscape:window-y="30"
     inkscape:window-maximized="1"
     units="pt" />
  <metadata
     id="metadata11586">
    <rdf:RDF>
      <cc:Work
         rdf:about="">
        <dc:format>image/svg+xml</dc:format>
        <dc:type
           rdf:resource="http://purl.org/dc/dcmitype/StillImage" />
        <dc:title />
      </cc:Work>
    </rdf:RDF>
  </metadata>
  <g
     inkscape:label="Layer 1"
     inkscape:groupmode="layer"
     id="layer1"
     transform="translate(-181.72592,-50.11218)">
    <path
       style="fill:#666666"
       inkscape:connector-curvature="0"
       id="path10080"
       d="m 206.64247,65.029 0,9.3333 q 0,0.29184 -0.18722,0.47913 -0.18781,0.1878 -0.47916,0.1878 l -6.66673,0 q -0.29185,0 -0.47911,-0.1878 -0.18782,-0.18722 -0.18782,-0.47913 l 0,-1.33329 q 0,-0.29185 0.18782,-0.47915 0.1872,-0.18781 0.47911,-0.18781 l 4.66664,0 0,-7.33319 q 0,-0.29185 0.18721,-0.47912 0.18781,-0.18782 0.47912,-0.18782 l 1.33365,0 q 0.29155,0 0.47915,0.18782 0.18722,0.1872 0.18722,0.47912 z m 8.66682,7.3332 q 0,-3.08311 -1.52094,-5.68749 -1.52097,-2.60399 -4.12496,-4.12493 -2.60434,-1.52097 -5.68749,-1.52097 -3.08346,0 -5.68745,1.52097 -2.60437,1.52094 -4.12496,4.12493 -1.52094,2.60438 -1.52094,5.68749 0,3.08347 1.52094,5.68745 1.52059,2.60438 4.12496,4.12493 2.60399,1.52097 5.68745,1.52097 3.08315,0 5.68749,-1.52097 2.60399,-1.52055 4.12496,-4.12493 1.52094,-2.60398 1.52094,-5.68745 z m 4.66666,0 q 0,4.3542 -2.14584,8.03127 -2.14581,3.67709 -5.8229,5.8229 -3.6771,2.14581 -8.03131,2.14581 -4.35417,0 -8.03127,-2.14581 -3.67707,-2.14581 -5.8229,-5.8229 -2.14581,-3.67707 -2.14581,-8.03127 0,-4.35421 2.14581,-8.03131 2.14583,-3.67707 5.8229,-5.8229 3.6771,-2.14581 8.03127,-2.14581 4.35421,0 8.03131,2.14581 3.67709,2.14583 5.8229,5.8229 2.14584,3.6771 2.14584,8.03131 z"
       unicode="" />
  </g>
</svg>
