<?xml version="1.0" encoding="UTF-8" standalone="no"?>
<!-- Created with Inkscape (http://www.inkscape.org/) -->

<svg
   xmlns:dc="http://purl.org/dc/elements/1.1/"
   xmlns:cc="http://creativecommons.org/ns#"
   xmlns:rdf="http://www.w3.org/1999/02/22-rdf-syntax-ns#"
   xmlns:svg="http://www.w3.org/2000/svg"
   xmlns="http://www.w3.org/2000/svg"
   version="1.1"
   width="20"
   height="16.866993"
   id="svg9627">
  <defs
     id="defs9629" />
  <metadata
     id="metadata9632">
    <rdf:RDF>
      <cc:Work
         rdf:about="">
        <dc:format>image/svg+xml</dc:format>
        <dc:type
           rdf:resource="http://purl.org/dc/dcmitype/StillImage" />
        <dc:title></dc:title>
      </cc:Work>
    </rdf:RDF>
  </metadata>
  <path
     d="m 0,8.8656521 0,3.4291509 c 0,0.154724 0.05655743,0.288788 0.16968344,0.401839 0.11309895,0.113179 0.24705555,0.169688 0.40185227,0.169688 l 0.57152299,0 0,3.429135 c 0,0.154725 0.056557,0.288788 0.1696834,0.40184 0.113099,0.113179 0.2470556,0.169688 0.4018523,0.169688 l 2.2860967,0 c 0.1547888,0 0.2887453,-0.05651 0.4018555,-0.169688 0.1131148,-0.113179 0.1696818,-0.247051 0.1696818,-0.40184 l 0,-3.429135 0.5715261,0 c 0.1547888,0 0.2887231,-0.05651 0.4018428,-0.169688 0.1131149,-0.113178 0.1696834,-0.247066 0.1696834,-0.401839 l 0,-3.4291509 c 0,-0.31553 -0.1116345,-0.584931 -0.3348796,-0.808184 C 5.1571656,7.8343431 4.8877689,7.7225971 4.572238,7.7225971 l -3.4291475,0 c -0.31552933,0 -0.58491972,0.111746 -0.80817275,0.334871 C 0.11165835,8.2808171 4.1387371e-5,8.5501221 4.1387371e-5,8.8656521 z M 0.85728685,5.4365017 c 0,0.5536516 0.19497905,1.0254677 0.58492135,1.4154163 0.389947,0.3899331 0.8617519,0.5849151 1.4154162,0.5849151 0.5536643,0 1.0254708,-0.194951 1.4154163,-0.5849151 0.3899454,-0.3899486 0.5849197,-0.8617647 0.5849197,-1.4154163 0,-0.5536675 -0.194979,-1.0254836 -0.5849197,-1.4154162 -0.3899455,-0.3899328 -0.861752,-0.584915 -1.4154163,-0.584915 -0.5536643,0 -1.0254692,0.1949504 -1.4154162,0.584915 -0.389947,0.3899326 -0.58492135,0.8617487 -0.58492135,1.4154162 z m 15.52836015,6.9125343 0,0.602409 q 0,0.122412 0.08941,0.21176 0.08943,0.08946 0.211777,0.08946 l 0.602397,0 q 0.122347,0 0.211777,-0.08946 0.08941,-0.08946 0.08941,-0.21176 l 0,-0.602409 q 0,-0.122411 -0.08941,-0.21176 -0.08943,-0.08946 -0.211777,-0.08946 l -0.602397,0 q -0.122364,0 -0.211777,0.08946 -0.08941,0.08946 -0.08941,0.21176 z m 0,-2.4095569 0,0.6023929 q 0,0.122412 0.08941,0.211776 0.08943,0.08946 0.211777,0.08946 l 0.602397,0 q 0.122347,0 0.211777,-0.08946 0.08941,-0.08946 0.08941,-0.211776 l 0,-0.6023929 q 0,-0.122411 -0.08941,-0.211776 -0.08943,-0.08946 -0.211777,-0.08946 l -0.602397,0 q -0.122364,0 -0.211777,0.08946 -0.08941,0.08946 -0.08941,0.211776 z m -2.409567,0 0,0.6023929 q 0,0.122412 0.08941,0.211776 0.08941,0.08946 0.211779,0.08946 l 0.60239,0 q 0.122363,0 0.211779,-0.08946 0.08941,-0.08946 0.08941,-0.211776 l 0,-0.6023929 q 0,-0.122411 -0.08941,-0.211776 -0.08941,-0.08946 -0.211779,-0.08946 l -0.60239,0 q -0.122363,0 -0.211779,0.08946 -0.08941,0.08946 -0.08941,0.211776 z m 2.409567,-2.409572 0,0.602393 q 0,0.122411 0.08941,0.211776 0.08943,0.08946 0.211777,0.08946 l 0.602397,0 q 0.122347,0 0.211777,-0.08946 0.08941,-0.08946 0.08941,-0.211776 l 0,-0.602393 q 0,-0.122411 -0.08941,-0.211776 -0.08943,-0.08946 -0.211777,-0.08946 l -0.602397,0 q -0.122364,0 -0.211777,0.08946 -0.08941,0.08946 -0.08941,0.211776 z m -7.2287057,4.8191289 0,0.602409 q 0,0.122412 0.089412,0.21176 0.089413,0.08946 0.2117795,0.08946 l 0.6023932,0 q 0.122364,0 0.211779,-0.08946 0.08941,-0.08946 0.08941,-0.21176 l 0,-0.602409 q 0,-0.122411 -0.08941,-0.21176 -0.08941,-0.08946 -0.211779,-0.08946 l -0.6023932,0 q -0.1223633,0 -0.2117795,0.08946 -0.089412,0.08946 -0.089412,0.21176 z m 2.4095667,-2.4095569 0,0.6023929 q 0,0.122412 0.08941,0.211776 0.08943,0.08946 0.211777,0.08946 l 0.602397,0 q 0.122363,0 0.211777,-0.08946 0.08941,-0.08946 0.08941,-0.211776 l 0,-0.6023929 q 0,-0.122411 -0.08941,-0.211776 -0.08941,-0.08946 -0.211777,-0.08946 l -0.602397,0 q -0.122363,0 -0.211777,0.08946 -0.08941,0.08946 -0.08941,0.211776 z m 2.409572,-2.409572 0,0.602393 q 0,0.122411 0.08941,0.211776 0.08941,0.08946 0.211779,0.08946 l 0.60239,0 q 0.122363,0 0.211779,-0.08946 0.08941,-0.08946 0.08941,-0.211776 l 0,-0.602393 q 0,-0.122411 -0.08941,-0.211776 -0.08941,-0.08946 -0.211779,-0.08946 l -0.60239,0 q -0.122363,0 -0.211779,0.08946 -0.08941,0.08946 -0.08941,0.211776 z m 2.409567,-2.4095572 0,0.6023774 q 0,0.1224111 0.08941,0.2117918 0.08943,0.08946 0.211777,0.08946 l 0.602397,0 q 0.122347,0 0.211777,-0.08946 0.08941,-0.08946 0.08941,-0.2117918 l 0,-0.6023774 q 0,-0.1224111 -0.08941,-0.2117919 -0.08943,-0.08946 -0.211777,-0.08946 l -0.602397,0 q -0.122364,0 -0.211777,0.08946 -0.08941,0.08946 -0.08941,0.2117919 z m -7.2287057,4.8191292 0,0.6023929 q 0,0.122412 0.089412,0.211776 0.089413,0.08946 0.2117795,0.08946 l 0.6023932,0 q 0.122364,0 0.211779,-0.08946 0.08941,-0.08946 0.08941,-0.211776 l 0,-0.6023929 q 0,-0.122411 -0.08941,-0.211776 -0.08941,-0.08946 -0.211779,-0.08946 l -0.6023932,0 q -0.1223633,0 -0.2117795,0.08946 -0.089412,0.08946 -0.089412,0.211776 z m 2.4095667,-2.409572 0,0.602393 q 0,0.122411 0.08941,0.211776 0.08943,0.08946 0.211777,0.08946 l 0.602397,0 q 0.122363,0 0.211777,-0.08946 0.08941,-0.08946 0.08941,-0.211776 l 0,-0.602393 q 0,-0.122411 -0.08941,-0.211776 -0.08941,-0.08946 -0.211777,-0.08946 l -0.602397,0 q -0.122363,0 -0.211777,0.08946 -0.08941,0.08946 -0.08941,0.211776 z m 2.409572,-2.4095572 0,0.6023774 q 0,0.1224111 0.08941,0.2117918 0.08941,0.08946 0.211779,0.08946 l 0.60239,0 q 0.122363,0 0.211779,-0.08946 0.08941,-0.08946 0.08941,-0.2117918 l 0,-0.6023774 q 0,-0.1224111 -0.08941,-0.2117919 -0.08941,-0.08946 -0.211779,-0.08946 l -0.60239,0 q -0.122363,0 -0.211779,0.08946 -0.08941,0.08946 -0.08941,0.2117919 z m 2.409567,-2.4095726 0,0.6023931 q 0,0.1224111 0.08941,0.211776 0.08943,0.08946 0.211777,0.08946 l 0.602397,0 q 0.122347,0 0.211777,-0.08946 0.08941,-0.08946 0.08941,-0.211776 l 0,-0.6023931 q 0,-0.1224112 -0.08941,-0.211792 -0.08943,-0.08946 -0.211777,-0.08946 l -0.602397,0 q -0.122364,0 -0.211777,0.08946 -0.08941,0.089461 -0.08941,0.211792 z m -7.2287057,4.8191298 0,0.602393 q 0,0.122411 0.089412,0.211776 0.089413,0.08946 0.2117795,0.08946 l 0.6023932,0 q 0.122364,0 0.211779,-0.08946 0.08941,-0.08946 0.08941,-0.211776 l 0,-0.602393 q 0,-0.122411 -0.08941,-0.211776 -0.08941,-0.08946 -0.211779,-0.08946 l -0.6023932,0 q -0.1223633,0 -0.2117795,0.08946 -0.089412,0.08946 -0.089412,0.211776 z m 2.4095667,-2.4095572 0,0.6023774 q 0,0.1224111 0.08941,0.2117918 0.08943,0.08946 0.211777,0.08946 l 0.602397,0 q 0.122363,0 0.211777,-0.08946 0.08941,-0.08946 0.08941,-0.2117918 l 0,-0.6023774 q 0,-0.1224111 -0.08941,-0.2117919 -0.08941,-0.08946 -0.211777,-0.08946 l -0.602397,0 q -0.122363,0 -0.211777,0.08946 -0.08941,0.08946 -0.08941,0.2117919 z m 2.409572,-2.4095726 0,0.6023931 q 0,0.1224111 0.08941,0.211776 0.08941,0.08946 0.211779,0.08946 l 0.60239,0 q 0.122363,0 0.211779,-0.08946 0.08941,-0.08946 0.08941,-0.211776 l 0,-0.6023931 q 0,-0.1224112 -0.08941,-0.211792 -0.08941,-0.08946 -0.211779,-0.08946 l -0.60239,0 q -0.122363,0 -0.211779,0.08946 -0.08941,0.089461 -0.08941,0.211792 z m -4.8191387,2.4095726 0,0.6023774 q 0,0.1224111 0.089412,0.2117918 0.089413,0.08946 0.2117795,0.08946 l 0.6023932,0 q 0.122364,0 0.211779,-0.08946 0.08941,-0.08946 0.08941,-0.2117918 l 0,-0.6023774 q 0,-0.1224111 -0.08941,-0.2117919 -0.08941,-0.08946 -0.211779,-0.08946 l -0.6023932,0 q -0.1223633,0 -0.2117795,0.08946 -0.089412,0.08946 -0.089412,0.2117919 z m 2.4095667,-2.4095726 0,0.6023931 q 0,0.1224111 0.08941,0.211776 0.08943,0.08946 0.211777,0.08946 l 0.602397,0 q 0.122363,0 0.211777,-0.08946 0.08941,-0.08946 0.08941,-0.211776 l 0,-0.6023931 q 0,-0.1224112 -0.08941,-0.211792 -0.08941,-0.08946 -0.211777,-0.08946 l -0.602397,0 q -0.122363,0 -0.211777,0.08946 -0.08941,0.089461 -0.08941,0.211792 z m -2.4095667,0 0,0.6023931 q 0,0.1224111 0.089412,0.211776 0.089413,0.08946 0.2117795,0.08946 l 0.6023932,0 q 0.122364,0 0.211779,-0.08946 0.08941,-0.08946 0.08941,-0.211776 l 0,-0.6023931 q 0,-0.1224112 -0.08941,-0.211792 -0.08941,-0.08946 -0.211779,-0.08946 l -0.6023932,0 q -0.1223633,0 -0.2117795,0.08946 -0.089412,0.089461 -0.089412,0.211792 z m 2.4095667,12.9514127 -3.6143518,0 0,-14.4573877 10.8430568,0 0,14.4573877 -3.614353,0 0,-2.108352 q 0,-0.12241 -0.08941,-0.211791 -0.08941,-0.08946 -0.21178,-0.08946 l -3.011962,0 q -0.122364,0 -0.211778,0.08946 -0.08941,0.08946 -0.08941,0.211791 l 0,2.108352 z M 6.7473714,0.6023931 l 0,15.6621909 q 0,0.244743 0.1788348,0.423567 0.1788365,0.178842 0.4235584,0.178842 l 12.0478454,0 q 0.244721,0 0.423556,-0.178842 Q 20,16.509327 20,16.264584 L 20,0.6023931 Q 20,0.3576824 19.821166,0.1788412 19.642331,0 19.39761,0 L 7.3497646,0 Q 7.1050427,0 6.9262062,0.1788412 6.7473714,0.3576824 6.7473714,0.6023931 z"
     id="path11442-2"
     style="fill:#666666" />
</svg>
